<?xml version="1.0" standalone="no"?>
<!DOCTYPE svg PUBLIC "-//W3C//DTD SVG 20010904//EN"
 "http://www.w3.org/TR/2001/REC-SVG-20010904/DTD/svg10.dtd">
<svg version="1.0" xmlns="http://www.w3.org/2000/svg"
 width="80.000000pt" height="58.000000pt" viewBox="0 0 80.000000 58.000000"
 preserveAspectRatio="xMidYMid meet">

<g transform="translate(0.000000,58.000000) scale(0.100000,-0.100000)"
fill="#000000" stroke="none">
<path d="M0 290 l0 -290 400 0 400 0 0 290 0 290 -400 0 -400 0 0 -290z m382
231 c-1 -7 2 -10 7 -7 16 10 32 -21 34 -67 l2 -45 28 20 c33 23 58 18 50 -11
-4 -17 1 -20 33 -23 31 -2 38 -7 39 -25 1 -13 -4 -23 -10 -23 -7 0 -26 -7 -44
-16 -31 -15 -31 -17 -17 -40 14 -21 14 -24 0 -32 -12 -6 -14 -14 -8 -25 8 -13
11 -14 28 -1 11 8 14 14 7 14 -7 0 -9 5 -6 10 8 13 25 3 25 -15 0 -12 -66 -55
-84 -55 -2 0 -7 11 -10 25 -7 26 -20 32 -31 15 -10 -16 -41 -11 -66 11 -17 14
-19 19 -7 15 39 -12 98 27 98 63 0 16 -32 13 -54 -4 -11 -8 -32 -15 -47 -15
-15 0 -29 -7 -33 -15 -4 -12 -11 -13 -33 -4 -15 6 -36 17 -45 26 -15 14 -16
13 -12 -9 3 -18 1 -17 -10 7 -8 17 -12 34 -9 38 3 4 -1 14 -7 22 -10 12 -10
15 1 15 12 0 12 2 0 9 -10 6 -10 10 -1 16 15 9 18 6 24 -29 5 -29 40 -66 61
-66 7 0 18 7 25 15 7 8 24 15 39 15 29 0 51 16 51 38 0 10 -4 10 -22 -2 -31
-22 -41 -20 -78 11 -29 24 -32 31 -27 71 3 25 1 39 -3 33 -5 -10 -9 -9 -13 2
-3 9 7 24 29 40 28 19 42 23 67 17 18 -4 31 -12 29 -19z m-169 -425 c3 -7 0
-19 -6 -25 -8 -8 -8 -11 1 -11 7 0 12 -9 12 -20 0 -11 -7 -20 -15 -20 -8 0
-15 9 -15 20 0 11 -4 20 -10 20 -5 0 -10 -9 -10 -20 0 -11 -7 -20 -15 -20 -11
0 -15 12 -15 45 0 44 0 45 34 45 20 0 36 -6 39 -14z m49 -28 c4 -56 21 -55 29
2 l6 45 1 -47 c2 -39 -1 -48 -18 -53 -31 -10 -50 12 -50 56 0 57 28 53 32 -3z
m116 22 c4 -12 2 -13 -9 -2 -14 13 -39 16 -39 4 0 -4 10 -12 22 -17 38 -17 33
-65 -7 -65 -5 0 -3 5 5 10 13 8 10 13 -13 32 -20 17 -26 28 -21 41 8 22 55 20
62 -3z m45 -2 c13 -19 16 -20 16 -6 1 9 5 20 11 23 7 4 7 -3 0 -20 -14 -37
-12 -55 5 -55 11 0 15 11 15 40 0 39 1 40 34 40 39 0 53 -14 36 -35 -9 -11 -9
-15 -1 -15 6 0 11 -9 11 -20 0 -11 -7 -20 -15 -20 -8 0 -15 9 -15 20 0 11 -4
20 -10 20 -5 0 -10 -9 -10 -20 0 -17 -7 -20 -44 -20 -37 0 -44 3 -49 23 -3 12
-9 32 -12 45 -4 12 -3 22 3 22 5 0 17 -10 25 -22z m185 15 c-10 -2 -18 -11
-18 -19 0 -8 8 -15 18 -15 16 -1 16 -2 0 -6 -10 -2 -18 -13 -18 -24 0 -10 -7
-19 -15 -19 -11 0 -15 12 -15 45 0 44 0 45 33 44 17 -1 24 -3 15 -6z m80 0
c-20 -5 -24 -33 -5 -34 10 0 10 -2 0 -6 -7 -2 -13 -13 -13 -24 0 -10 -7 -19
-15 -19 -11 0 -15 12 -15 45 0 44 0 45 33 44 17 -1 24 -3 15 -6z m-364 -69 c3
-8 2 -12 -4 -9 -6 3 -10 10 -10 16 0 14 7 11 14 -7z"/>
<path d="M351 444 c0 -11 3 -14 6 -6 3 7 2 16 -1 19 -3 4 -6 -2 -5 -13z"/>
<path d="M343 403 c-15 -5 -17 -23 -4 -23 5 0 11 7 15 15 3 8 4 15 3 14 -1 0
-8 -3 -14 -6z"/>
<path d="M466 251 c-4 -7 -5 -15 -2 -18 9 -9 19 4 14 18 -4 11 -6 11 -12 0z"/>
<path d="M170 85 c0 -8 5 -15 10 -15 6 0 10 7 10 15 0 8 -4 15 -10 15 -5 0
-10 -7 -10 -15z"/>
<path d="M500 85 c0 -8 5 -15 10 -15 6 0 10 7 10 15 0 8 -4 15 -10 15 -5 0
-10 -7 -10 -15z"/>
</g>
</svg>
